<?xml version="1.0" encoding="iso-8859-1"?>
<!-- Generator: Adobe Illustrator 19.0.0, SVG Export Plug-In . SVG Version: 6.00 Build 0)  -->
<svg version="1.1" id="Capa_1" xmlns="http://www.w3.org/2000/svg" xmlns:xlink="http://www.w3.org/1999/xlink" x="0px" y="0px"
	 viewBox="0 0 486.154 486.154" style="enable-background:new 0 0 486.154 486.154;" xml:space="preserve">
<g>
	<g>
		<g>
			<path d="M250.477,80.045c-1.679-4.087-6.353-6.039-10.44-4.36c-1.978,0.812-3.548,2.383-4.36,4.36l-128,312
				c-1.679,4.087,0.272,8.761,4.359,10.44c1.731,0.711,3.656,0.793,5.441,0.232l125.6-39.256l125.6,39.256
				c0.777,0.239,1.586,0.361,2.4,0.36c4.418-0.002,7.999-3.585,7.997-8.003c0-1.039-0.203-2.068-0.597-3.029L250.477,80.045z
				 M235.077,349.197l-106.144,33.168l106.144-258.712V349.197z M251.077,123.645l10.224,24.92l-10.224,3.4V123.645z
				 M251.077,168.853l16.312-5.44l4.696,11.448l-21.008,8.392V168.853z M251.077,200.493l27.08-10.832l6.24,15.2l-33.32,11.104
				V200.493z M251.077,232.845l39.408-13.136l4.64,11.304l-44.048,16.512V232.845z M251.077,264.621l50.128-18.792l6.288,15.344
				l-56.416,18.792V264.621z M251.077,296.845l62.504-20.8l4.616,11.24l-67.12,24.36V296.845z M251.077,328.677l73.2-26.624
				l6.32,15.408l-79.52,26.512V328.677z M269.085,354.829l67.592-22.52l4.664,11.368l-49.056,18.4L269.085,354.829z
				 M317.157,369.845l30.272-11.352l9.792,23.872L317.157,369.845z"/>
			<path d="M467.077,347.077c0,4.418-3.582,8-8,8h-80v16h80c13.255,0,24-10.745,24-24v-56h-16V347.077z"/>
			<path d="M459.077,115.077h-176v16h176c4.418,0,8,3.582,8,8v56h16v-56C483.077,125.822,472.332,115.077,459.077,115.077z"/>
			<path d="M27.077,371.077h80v-16h-80c-4.418,0-8-3.582-8-8v-208c0-4.418,3.582-8,8-8h184v-16h-184c-13.255,0-24,10.745-24,24v208
				C3.077,360.332,13.822,371.077,27.077,371.077z"/>
			<path d="M459.077,203.077h-32c-13.255,0-24,10.745-24,24v32c0,13.255,10.745,24,24,24h32c13.255,0,24-10.745,24-24v-32
				C483.077,213.822,472.332,203.077,459.077,203.077z M467.077,259.077c0,4.418-3.582,8-8,8h-32c-4.418,0-8-3.582-8-8v-32
				c0-4.418,3.582-8,8-8h32c4.418,0,8,3.582,8,8V259.077z"/>
			<path d="M419.077,195.077v-40c0-4.418-3.582-8-8-8h-120v16h112v32H419.077z"/>
			<path d="M419.077,331.077v-40h-16v32h-40v16h48C415.495,339.077,419.077,335.495,419.077,331.077z"/>
			<path d="M195.077,147.077h-152c-4.418,0-8,3.582-8,8v176c0,4.418,3.582,8,8,8h80v-16h-72v-160h144V147.077z"/>
			<rect x="435.077" y="155.077" width="16" height="32"/>
			<rect x="435.077" y="299.077" width="16" height="32"/>
			<rect x="23.109" y="383.077" transform="matrix(-0.923 -0.3848 0.3848 -0.923 -107.6076 848.6204)" width="16" height="104"/>
			
				<rect x="59.078" y="235.078" transform="matrix(-0.3846 0.9231 -0.9231 -0.3846 378.1807 234.0362)" width="104.001" height="16"/>
			<rect x="183.078" y="-0.92" transform="matrix(0.923 0.3848 -0.3848 0.923 34.3726 -69.5986)" width="16" height="104"/>
			<rect x="403.068" y="427.078" transform="matrix(-0.3846 -0.9231 0.9231 -0.3846 228.4938 1022.4818)" width="104" height="16"/>
			
				<rect x="323.082" y="235.069" transform="matrix(0.3846 0.9231 -0.9231 0.3846 455.2107 -196.6416)" width="103.992" height="16"/>
			<rect x="243.055" y="43.114" transform="matrix(0.3846 0.9231 -0.9231 0.3846 228.7786 -240.941)" width="104.08" height="16"/>
			<rect x="235.077" y="3.077" width="16" height="48"/>
			<rect x="235.077" y="435.077" width="16" height="48"/>
			<rect x="235.077" y="371.077" width="16" height="48"/>
		</g>
	</g>
</g>
<g>
</g>
<g>
</g>
<g>
</g>
<g>
</g>
<g>
</g>
<g>
</g>
<g>
</g>
<g>
</g>
<g>
</g>
<g>
</g>
<g>
</g>
<g>
</g>
<g>
</g>
<g>
</g>
<g>
</g>
</svg>
