<?xml version="1.0"?>
<svg xmlns="http://www.w3.org/2000/svg" viewBox="0 0 192 192" width="512" height="512"><g id="_03-cup" data-name="03-cup"><path d="M156,136a28,28,0,0,0,0-56H32a8,8,0,0,0-8,8v24a63.566,63.566,0,0,0,13.965,40H16a8,8,0,0,0-8,8,32.036,32.036,0,0,0,32,32h96a32.036,32.036,0,0,0,32-32,8,8,0,0,0-8-8H138.035a63.033,63.033,0,0,0,9.36-16Zm12-28a12.013,12.013,0,0,1-12,12h-4.493a65.584,65.584,0,0,0,.493-8V96h4A12.013,12.013,0,0,1,168,108Zm-32,68H40a16.01,16.01,0,0,1-13.853-8H149.853A16.011,16.011,0,0,1,136,176ZM61.5,152A47.6,47.6,0,0,1,40,112V96h96v16a47.6,47.6,0,0,1-21.5,40Z"/><path d="M64,40a8.009,8.009,0,0,1,8-8H88A24.027,24.027,0,0,0,112,8V0H96V8a8.009,8.009,0,0,1-8,8H72A24.027,24.027,0,0,0,48,40v8H64Z"/><path d="M96,40A24.027,24.027,0,0,0,72,64v8H88V64a8.009,8.009,0,0,1,8-8h16a24.027,24.027,0,0,0,24-24V24H120v8a8.009,8.009,0,0,1-8,8Z"/><circle cx="112" cy="128" r="8"/></g></svg>
