<?xml version="1.0"?>
<svg xmlns="http://www.w3.org/2000/svg" id="Layer_1" data-name="Layer 1" viewBox="0 0 512 512" width="512" height="512"><title>Map pointer pin location</title><path d="M475.87,314.85a85.935,85.935,0,0,1-5.56,35.19,92.984,92.984,0,0,1-20.22,31.28l-62.4,65.02-60.96-66.38a92.657,92.657,0,0,1-19.52-31.72,86.039,86.039,0,0,1-4.79-35.3c3.44-44.15,39.15-82.9,87.64-82.36S473.4,270.63,475.87,314.85Zm-49.47-1.59c.24-21.12-16.25-38.43-36.82-38.66s-37.44,16.72-37.67,37.84,16.26,38.43,36.83,38.66S426.17,334.38,426.4,313.26Z" style="fill:#e48e66"/><path d="M160.07,100.06a61.491,61.491,0,0,1-3.97,25.13,66.318,66.318,0,0,1-14.44,22.35L97.08,193.98,53.54,146.57A66.344,66.344,0,0,1,39.6,123.91a61.429,61.429,0,0,1-3.42-25.22c2.45-31.53,27.96-59.21,62.6-58.82S158.31,68.48,160.07,100.06Zm-35.33-1.14c.16-15.09-11.61-27.45-26.31-27.61S71.69,83.25,71.53,98.34s11.61,27.45,26.3,27.61S124.57,114.01,124.74,98.92Z" style="fill:#e48e66"/><path d="M370.108,478.14a5.976,5.976,0,0,1-3.983-1.515l-29.04-25.8a6,6,0,0,1,7.971-8.971l29.04,25.8a6,6,0,0,1-3.988,10.485Z" style="fill:#f8ec7d"/><path d="M302.168,417.8a5.974,5.974,0,0,1-3.983-1.515l-42.379-37.649a6,6,0,0,1,7.968-8.972l42.381,37.65a6,6,0,0,1-3.987,10.486Z" style="fill:#f8ec7d"/><path d="M219.6,344.46a5.98,5.98,0,0,1-3.983-1.514l-34.3-30.47a6,6,0,0,1,7.969-8.972l34.3,30.47A6,6,0,0,1,219.6,344.46Z" style="fill:#f8ec7d"/><path d="M147.7,280.6a5.975,5.975,0,0,1-3.982-1.514l-49.57-44.03a6,6,0,1,1,7.968-8.972l49.571,44.03A6,6,0,0,1,147.7,280.6Z" style="fill:#f8ec7d"/></svg>
