<?xml version="1.0"?>
<svg xmlns="http://www.w3.org/2000/svg" id="Layer_1" data-name="Layer 1" viewBox="0 0 512 512" width="512" height="512"><title>Map pointer pin location</title><path d="M322.309,384.022l60.96,66.38a6,6,0,0,0,4.352,1.942h.067a6,6,0,0,0,4.329-1.845l62.406-65.022a98.47,98.47,0,0,0,21.5-33.32,91.6,91.6,0,0,0,5.943-37.646,97.038,97.038,0,0,0-27.34-62.366,91.348,91.348,0,0,0-129.379-1.425,97.045,97.045,0,0,0-28.706,61.75,91.6,91.6,0,0,0,5.112,37.768A98.474,98.474,0,0,0,322.309,384.022ZM308.4,313.4a85.06,85.06,0,0,1,25.15-54.12A78.775,78.775,0,0,1,389.1,236.572c.3,0,.6,0,.9,0a78.793,78.793,0,0,1,55.935,23.944,85.055,85.055,0,0,1,23.952,54.659,79.7,79.7,0,0,1-5.19,32.74,86.554,86.554,0,0,1-18.928,29.247l-57.981,60.412-56.637-61.674a86.546,86.546,0,0,1-18.279-29.656A79.7,79.7,0,0,1,308.4,313.4Z"/><path d="M388.67,357.1c.16,0,.319,0,.479,0a42.478,42.478,0,0,0,30.3-12.681A44.492,44.492,0,0,0,432.4,313.324c.269-24.4-18.914-44.46-42.759-44.722a42.34,42.34,0,0,0-30.78,12.678,44.5,44.5,0,0,0-12.955,31.093C345.642,336.77,364.824,356.833,388.67,357.1Zm-21.3-67.348a30.571,30.571,0,0,1,21.8-9.148l.342,0c17.23.19,31.089,14.81,30.892,32.591a32.549,32.549,0,0,1-9.459,22.758A30.679,30.679,0,0,1,388.8,345.1c-17.231-.19-31.089-14.81-30.893-32.592A32.552,32.552,0,0,1,367.369,289.747Z"/><path d="M49.122,150.627l43.542,47.415a6,6,0,0,0,4.353,1.941h.066a6,6,0,0,0,4.329-1.845l44.576-46.445a72.033,72.033,0,0,0,15.722-24.381,67.112,67.112,0,0,0,4.352-27.591,71.035,71.035,0,0,0-20.011-45.649,66.966,66.966,0,0,0-94.843-1.044A71.041,71.041,0,0,0,30.2,98.227a67.14,67.14,0,0,0,3.744,27.679A72.021,72.021,0,0,0,49.122,150.627ZM42.158,99.159A59.052,59.052,0,0,1,59.614,61.592,54.568,54.568,0,0,1,98.092,45.861c.207,0,.415,0,.622,0a54.575,54.575,0,0,1,38.743,16.584,59.043,59.043,0,0,1,16.625,37.942,55.206,55.206,0,0,1-3.6,22.685,60.1,60.1,0,0,1-13.153,20.308L97.18,185.218,57.96,142.511a60.112,60.112,0,0,1-12.7-20.593A55.206,55.206,0,0,1,42.158,99.159Z"/><path d="M97.766,131.949l.362,0a32.043,32.043,0,0,0,22.857-9.563,33.841,33.841,0,0,0,.517-47.007,32.116,32.116,0,0,0-46.221-.509,33.841,33.841,0,0,0-.517,47.007A32.037,32.037,0,0,0,97.766,131.949ZM83.785,83.338a20.139,20.139,0,0,1,14.358-6.029h.224a20.134,20.134,0,0,1,14.446,6.348,21.841,21.841,0,0,1-.333,30.263,20.115,20.115,0,0,1-29.028-.319,21.844,21.844,0,0,1,.333-30.264Z"/><path d="M345.051,441.858a6,6,0,1,0-7.969,8.972l29.041,25.8a6,6,0,1,0,7.969-8.972Z"/><path d="M255.8,378.639l42.383,37.645a6,6,0,1,0,7.968-8.972l-42.383-37.645a6,6,0,0,0-7.968,8.972Z"/><path d="M181.312,312.477l34.3,30.467a6,6,0,1,0,7.969-8.971l-34.3-30.468a6,6,0,0,0-7.969,8.972Z"/><path d="M147.7,280.6a6,6,0,0,0,3.987-10.486l-49.57-44.027a6,6,0,1,0-7.969,8.972l49.57,44.027A5.975,5.975,0,0,0,147.7,280.6Z"/></svg>
