<svg height="512" viewBox="0 0 192 192" width="512" xmlns="http://www.w3.org/2000/svg"><g id="_02-spoon_fork" data-name="02-spoon fork"><path d="m190.166 41.558-12.645-9.8-19.606 25.288-6.322-4.9 19.607-25.292-12.646-9.8-19.6 25.291-6.323-4.9 19.598-25.295-12.646-9.8-29.407 37.934a32.028 32.028 0 0 0 -.02 39.2l-14.794 19.086-15.354-27.041a29.863 29.863 0 0 0 9.107-12.782c2.843-8.121 1.606-16.957-3.678-26.263a65.636 65.636 0 0 0 -22.064-22.572c-11.029-6.7-21.492-7.894-29.464-3.368-17.241 9.789-14.023 40.112-4.126 57.541 5.283 9.306 12.238 14.9 20.668 16.616a26.54 26.54 0 0 0 5.306.527 32.173 32.173 0 0 0 10.331-1.811l18.654 32.853-53.622 69.174 12.646 9.8 49.535-63.9 36.354 64.026 13.913-7.9-39.647-69.825 18.884-24.362a32.07 32.07 0 0 0 37.954-9.788zm-136.518 23.465c-3.7-.755-7.051-3.729-9.952-8.838-7.629-13.436-7.634-32.464-1.887-35.728a5.442 5.442 0 0 1 2.691-.6c2.773 0 6.59 1.312 10.566 3.727a49.609 49.609 0 0 1 16.457 16.8c2.9 5.11 3.74 9.509 2.491 13.075-1.412 4.034-5.4 6.978-8.5 8.739s-7.676 3.677-11.866 2.825zm72.017 7.512a16 16 0 0 1 -2.843-22.448l25.291 19.6a16.02 16.02 0 0 1 -22.448 2.848z"/></g></svg>