<?xml version="1.0" encoding="iso-8859-1"?>
<!-- Generator: Adobe Illustrator 19.0.0, SVG Export Plug-In . SVG Version: 6.00 Build 0)  -->
<svg version="1.1" id="Capa_1" xmlns="http://www.w3.org/2000/svg" xmlns:xlink="http://www.w3.org/1999/xlink" x="0px" y="0px"
	 viewBox="0 0 408.509 408.509" style="enable-background:new 0 0 408.509 408.509;" xml:space="preserve">
<g>
	<g>
		<path d="M224.246,212.576l-10.12-10.12l-181.32,181.44c10.76,10.76,18.2,20.28,35.08,20.28c9.369,0.037,18.367-3.663,25-10.28
			l132-132C238.004,247.971,237.721,226.155,224.246,212.576z"/>
	</g>
</g>
<g>
	<g>
		<path d="M193.646,182.176l-0.12-0.28c-14.079-11.546-34.611-10.56-47.52,2.28l-131.52,131.44
			c-13.734,13.822-13.734,36.138,0,49.96l10.08,10.08l181.48-181.48L193.646,182.176z"/>
	</g>
</g>
<g>
	<g>
		<path d="M403.206,31.416l-26.2-26.2c-2.027-1.607-4.937-1.435-6.76,0.4l-39.32,32c-1.273,1.792-0.997,4.254,0.64,5.72
			c2.253,2.263,2.271,5.915,0.04,8.2l-125.84,125.84l25.32,25.32l125.84-125.84c2.279-2.268,5.962-2.268,8.24,0
			c1.524,1.734,4.156,1.93,5.92,0.44l31.72-39.12C404.641,36.353,404.813,33.442,403.206,31.416z"/>
	</g>
</g>
<g>
	<g>
		<path d="M163.166,101.856c-1.364-1.36-1.963-3.309-1.6-5.2c8.337-44.266-20.789-86.909-65.055-95.246
			C84.705-0.814,72.554-0.402,60.926,2.616l37.68,37.56c16.127,16.116,16.136,42.253,0.02,58.38s-42.253,16.136-58.38,0.02
			l-37.6-37.68c-10.952,42.16,13.159,85.486,54.76,98.4c12.601,3.881,25.952,4.663,38.92,2.28c1.992-0.507,4.103,0.07,5.56,1.52
			l24.28,24.28l14.52-14.28c15.913-13.283,38.629-14.63,56-3.32l17.16-17.16L163.166,101.856z"/>
	</g>
</g>
<g>
	<g>
		<path d="M350.966,249.136l0.12,0c-12.576-3.868-25.898-4.65-38.84-2.28c-1.992,0.507-4.103-0.07-5.56-1.52l-50.88-50.84
			l-17.16,17.16c12.207,18.638,9.704,43.276-6,59.08l-11.56,11.56l24.28,24.28c1.364,1.36,1.963,3.309,1.6,5.2
			c-8.416,44.206,20.598,86.865,64.804,95.281c44.206,8.416,86.865-20.598,95.281-64.804
			C414.818,301.456,390.659,261.346,350.966,249.136z M378.126,320.176l-11.4,42.56c-0.556,1.933-2.067,3.444-4,4l-42.8,11.48
			c-2.017,0.537-4.167-0.042-5.64-1.52l-31.36-31.36c-1.553-1.547-2.109-3.833-1.44-5.92l11.4-42.56c0.555-1.933,2.067-3.444,4-4
			l42.8-11.48c2.017-0.537,4.167,0.042,5.64,1.52l31.36,31.36C378.239,315.802,378.795,318.088,378.126,320.176z"/>
	</g>
</g>
<g>
</g>
<g>
</g>
<g>
</g>
<g>
</g>
<g>
</g>
<g>
</g>
<g>
</g>
<g>
</g>
<g>
</g>
<g>
</g>
<g>
</g>
<g>
</g>
<g>
</g>
<g>
</g>
<g>
</g>
</svg>
